<?xml version="1.0" encoding="utf-8"?>
<!-- Generator: Adobe Illustrator 16.0.3, SVG Export Plug-In . SVG Version: 6.00 Build 0)  -->
<!DOCTYPE svg PUBLIC "-//W3C//DTD SVG 1.1//EN" "http://www.w3.org/Graphics/SVG/1.1/DTD/svg11.dtd">
<svg version="1.1" id="Layer_1" xmlns="http://www.w3.org/2000/svg" xmlns:xlink="http://www.w3.org/1999/xlink" x="0px" y="0px"
	 width="500px" height="500px" viewBox="0 0 500 500" enable-background="new 0 0 500 500" xml:space="preserve">
<path fill="#5E9AA8" d="M128.088,15.222c-35.477,0-64.237,26.963-64.237,60.222V497h321.185c35.476,0,64.236-26.962,64.236-60.222
	V15.222H128.088z"/>
<path fill="#9BCFDD" d="M118.964,7C83.487,7,54.727,33.963,54.727,67.222v421.555h321.185c35.476,0,64.237-26.962,64.237-60.223V7
	H118.964z"/>
<path fill="#FFFFFF" d="M388.208,64.043c-3.49,0.575-29.916,1.274-41.905,1.274h-20.849h-22.408
	c-15.112,0.178-30.711,3.029-35.437,4.978c0,0-5.923,2.16-10.273,6.439c-2.603,2.565-7.89,11.697-9.897,15.893
	c-1.994-4.178-7.298-13.325-9.903-15.893c-4.344-4.279-10.268-6.439-10.268-6.439c-4.726-1.949-20.325-4.799-35.44-4.978h-22.413
	h-20.844c-11.985,0-38.416-0.7-41.901-1.274c-19.82-3.256-19.865-4.825-19.82-3.256c0.045,1.57,14.432,41.272,57.034,52.112
	c14.208,3.615,38.304,10.821,61.282,16.004c18.142,4.092,19.645,16.892,20.101,23.629c2.196,32.444-33.492,148.95-43.992,193.14
	h132.324c-10.497-44.19-46.184-160.696-43.988-193.14c0.452-6.737,1.958-19.542,20.101-23.629
	c22.979-5.183,47.07-12.389,61.283-16.004c42.606-10.84,56.986-50.545,57.032-52.112C408.071,59.221,408.026,60.787,388.208,64.043z
	"/>
<g>
	<path fill="#FFFFFF" d="M151.504,373.703c-2.017,0-3.132,1.054-3.342,3.161l-6.775,63.232c0.03,2.109,1.144,3.163,3.343,3.163
		h-11.292c-1.535,0-2.74-0.437-3.613-1.309c-0.301-0.3-1.024-1.353-2.168-3.156c-2.167-3.367-5.766-11.349-10.795-23.945
		c-1.445,3.698-2.785,7.021-4.02,9.967c-2.981,7.065-5.21,11.725-6.685,13.979c-1.145,1.804-1.867,2.856-2.168,3.156
		c-0.874,0.872-2.077,1.309-3.613,1.309H89.084c2.197,0,3.313-1.054,3.342-3.163l0.045-0.947l-6.775-62.285
		c-0.242-2.107-1.371-3.161-3.388-3.161h11.337c1.686,0,2.92,0.347,3.704,1.039c0.662,0.635,1.175,1.765,1.536,3.392l1.897,12.524
		l4.02,21.75c0.3,1.597,1.235,2.396,2.8,2.396c1.294,0,2.318-0.993,3.072-2.98l6.549-16.803l5.917,16.803
		c0.693,2.018,1.686,3.026,2.981,3.026c1.656,0,2.62-0.814,2.891-2.441l5.917-34.274c0.362-1.627,0.903-2.772,1.626-3.436
		c0.723-0.664,1.927-0.995,3.613-0.995H151.504z"/>
	<path fill="#FFFFFF" d="M204.033,373.703c-2.259,0-3.388,1.054-3.388,3.161v1.717v61.516c0,2.109,1.114,3.163,3.342,3.163h-11.336
		c-3.494,0-5.24-1.473-5.24-4.42v-20.879c0-1.953-0.979-2.931-2.936-2.931h-12.15c-1.958,0-2.936,0.978-2.936,2.931v20.879
		c0,2.947-1.746,4.42-5.239,4.42h-11.336c2.228,0,3.342-1.054,3.342-3.163v-63.232c-0.031-2.107-1.145-3.161-3.342-3.161h11.322
		c3.502,0,5.253,1.478,5.253,4.434v20.809c0,1.961,0.973,2.942,2.921,2.942h8.898h3.281c1.947,0.029,2.92-0.951,2.92-2.942v-20.809
		c0-2.956,1.75-4.434,5.253-4.434H204.033z"/>
	<path fill="#FFFFFF" d="M256.563,443.304l-32.294,0.046c-7.559,0-11.337-3.703-11.337-11.111v-15.537
		c0-4.367,2.304-7.633,6.911-9.802c4.274-1.445,8.551-2.891,12.827-4.335c4.607-1.807,6.911-4.442,6.911-7.903v-5.015
		c0-1.958-0.979-2.936-2.936-2.936h-7.362c-1.958,0-2.936,0.978-2.936,2.936v2.303c0,2.802-1.596,4.411-4.788,4.833h-11.969
		c2.228,0,3.342-1.113,3.342-3.342v-8.808c0-7.287,3.778-10.93,11.337-10.93h17.388c7.558,0,11.337,3.643,11.337,10.93v55.284
		C252.993,442.175,254.183,443.304,256.563,443.304z M239.579,427.181v-14.68c-4.547,1.596-7.769,3.04-9.666,4.336
		c-2.378,1.565-3.568,3.342-3.568,5.33v5.014c0,1.956,0.978,2.936,2.936,2.936h7.362
		C238.601,430.116,239.579,429.137,239.579,427.181z"/>
	<path fill="#FFFFFF" d="M308.549,420.812c-2.259,0-3.388,1.113-3.388,3.342v7.995c0,7.407-3.704,11.111-11.111,11.111h-17.615
		c-7.437,0-11.155-3.702-11.155-11.104v-55.384c0-2.105-1.114-3.159-3.344-3.159h11.338c3.492,0,5.239,1.475,5.239,4.422v49.058
		c0,1.956,0.979,2.935,2.937,2.935h7.542c1.958,0,2.937-0.979,2.937-2.937v-1.672c0-3.07,1.761-4.606,5.284-4.606H308.549z"/>
	<path fill="#FFFFFF" d="M361.349,419.998c-2.229,0-3.342,1.115-3.342,3.342v8.809c0,7.407-3.704,11.111-11.111,11.111h-17.57
		c-7.407,0-11.111-3.704-11.111-11.111v-47.561c0-7.257,3.704-10.885,11.111-10.885l17.525,0.045c3.342,0,6.007,0.904,7.994,2.713
		c2.107,1.928,3.162,4.641,3.162,8.136v9.222c0,3.194-1.279,6.659-3.834,10.396c-2.735,4.068-5.892,6.645-9.468,7.729
		c-4.57,1.419-7.861,2.864-9.876,4.341c-2.255,1.627-3.38,3.571-3.38,5.831v5.062c0,1.96,0.971,2.939,2.915,2.939h7.492
		c1.943,0,2.916-0.985,2.916-2.95v-2.541c0-3.084,1.539-4.627,4.619-4.627H361.349z M344.772,394.434v-4.787
		c0-1.958-0.973-2.936-2.916-2.936h-7.492c-1.944,0-2.915,0.978-2.915,2.936v15.266
		C340.331,400.667,344.772,397.174,344.772,394.434z"/>
	<path fill="#FFFFFF" d="M412.567,396.782h-11.322c-3.502,0-5.254-1.55-5.254-4.651v-2.484c0-1.958-0.973-2.936-2.916-2.936h-7.493
		c-1.942,0-2.916,0.978-2.916,2.936v5.015c0,3.763,2.301,6.473,6.898,8.129c4.269,1.264,8.523,2.545,12.763,3.839
		c4.598,2.018,6.897,5.36,6.897,10.027v15.492c0,7.407-3.703,11.111-11.11,11.111h-17.569c-7.408,0-11.111-3.704-11.111-11.111
		v-8.763c0-2.258-1.055-3.388-3.162-3.388h11.141c3.503,0,5.254,1.543,5.254,4.627v2.541c0,1.965,0.974,2.95,2.916,2.95h7.493
		c1.943,0,2.916-0.979,2.916-2.939v-5.017c0-3.767-2.3-6.494-6.897-8.182c-4.271-1.325-8.523-2.637-12.763-3.934
		c-4.598-2.019-6.897-5.318-6.897-9.898v-15.55c0-7.262,3.703-10.894,11.111-10.894h17.569c7.407,0,11.11,3.628,11.11,10.885v8.807
		C409.225,395.653,410.339,396.782,412.567,396.782z"/>
</g>
</svg>
