<?xml version="1.0" encoding="utf-8"?>
<!-- Generator: Adobe Illustrator 16.0.3, SVG Export Plug-In . SVG Version: 6.00 Build 0)  -->
<!DOCTYPE svg PUBLIC "-//W3C//DTD SVG 1.1//EN" "http://www.w3.org/Graphics/SVG/1.1/DTD/svg11.dtd">
<svg version="1.1" id="Layer_1" xmlns="http://www.w3.org/2000/svg" xmlns:xlink="http://www.w3.org/1999/xlink" x="0px" y="0px"
	 width="100px" height="100px" viewBox="0 0 100 100" enable-background="new 0 0 100 100" xml:space="preserve">
<g id="Your_Icon">
	<g>
		<g>
			<polygon fill="#9CCEDB" points="38.891,44.028 62.354,44.028 50.622,62.797 44.598,53.161 			"/>
			<path fill="#9BCDDA" d="M50.622,63.74L37.989,43.528h25.268L50.622,63.74z M39.792,44.528l10.83,17.325l10.83-17.325H39.792z"/>
		</g>
	</g>
	<g>
		<g>
			<polygon fill="#9CCEDB" points="37.528,45.373 48.765,63.352 33.03,61.103 34.154,57.169 37.523,45.368 			"/>
			<path fill="#9BCDDA" d="M49.759,63.999l-17.368-2.482l4.884-17.104l0.676,0.694L49.759,63.999z M33.668,60.688l14.103,2.016
				l-10.075-16.12L33.668,60.688z"/>
		</g>
		<g>
			<path fill="#9CCEDB" d="M37.523,45.368l-3.369,11.801l3.374-11.797L37.523,45.368z"/>
			<polygon fill="#9BCDDA" points="34.635,57.307 33.673,57.031 37.263,44.459 38.09,45.205 38.009,45.51 			"/>
		</g>
	</g>
	<g>
		<g>
			<polygon fill="#9CCEDB" points="63.716,45.373 63.722,45.368 67.09,57.169 68.214,61.103 52.479,63.352 			"/>
			<path fill="#9BCDDA" d="M51.485,63.999l11.91-19.011l0.591-0.491l0.216,0.733l4.65,16.286L51.485,63.999z M63.549,46.583
				L53.474,62.704l14.102-2.016L63.549,46.583z"/>
		</g>
		<g>
			<path fill="#9CCEDB" d="M63.722,45.368l-0.007,0.004l3.374,11.797L63.722,45.368z"/>
			<polygon fill="#9BCDDA" points="66.608,57.307 66.606,57.3 63.132,45.152 64.011,44.587 64.202,45.23 67.569,57.032 			"/>
		</g>
	</g>
	<g>
		<g>
			<polygon fill="#9CCEDB" points="64.696,63.492 51.556,71 51.556,65.368 			"/>
			<path fill="#9BCDDA" d="M51.056,71.861v-6.927l16.163-2.308L51.056,71.861z M52.056,65.802v4.337l10.118-5.781L52.056,65.802z"/>
		</g>
	</g>
	<g>
		<g>
			<polygon fill="#9CCEDB" points="49.689,65.368 49.689,71 36.549,63.492 			"/>
			<path fill="#9BCDDA" d="M50.189,71.861l-16.162-9.234l16.162,2.308V71.861z M39.071,64.357l10.118,5.781v-4.337L39.071,64.357z"
				/>
		</g>
	</g>
	<g>
		<g>
			<polygon fill="#9CCEDB" points="50.622,31 61.784,42.162 39.46,42.162 			"/>
			<path fill="#9BCDDA" d="M62.991,42.662H38.253l12.369-12.369L62.991,42.662z M40.667,41.662h19.91l-9.955-9.955L40.667,41.662z"
				/>
		</g>
	</g>
	<g>
		<g>
			<polygon fill="#9CCEDB" points="67.632,39.231 64.126,41.863 55.349,33.085 			"/>
			<path fill="#9BCDDA" d="M64.079,42.523L52.814,31.258l15.764,7.888L64.079,42.523z M57.883,34.913l6.29,6.291l2.513-1.886
				L57.883,34.913z"/>
		</g>
		<g>
			<path fill="#9CCEDB" d="M65.111,43.454l3.36-2.515v-0.004L65.111,43.454z"/>
			<polygon fill="#9BCDDA" points="65.411,43.854 64.812,43.054 68.972,39.935 68.972,41.185 68.771,41.339 			"/>
		</g>
	</g>
	<g>
		<g>
			<polygon fill="#9CCEDB" points="68.472,40.935 68.472,55.214 65.111,43.458 65.111,43.454 			"/>
			<path fill="#9BCDDA" d="M68.972,58.782l-4.36-15.324v-0.25l0.2-0.154l4.16-3.12V58.782z M65.686,43.648l2.286,7.997v-9.711
				L65.686,43.648z"/>
		</g>
	</g>
	<g>
		<g>
			<polygon fill="#9CCEDB" points="45.896,33.085 37.123,41.863 33.613,39.231 			"/>
			<path fill="#9BCDDA" d="M37.169,42.523l-4.503-3.377l15.761-7.887L37.169,42.523z M34.56,39.317l2.516,1.886l6.288-6.292
				L34.56,39.317z"/>
		</g>
		<g>
			<path fill="#9CCEDB" d="M32.773,40.935v0.004l3.359,2.515L32.773,40.935z"/>
			<polygon fill="#9BCDDA" points="35.833,43.854 35.829,43.852 32.273,41.189 32.273,39.939 36.433,43.054 			"/>
		</g>
	</g>
	<g>
		<g>
			<polygon fill="#9CCEDB" points="32.773,40.935 36.133,43.454 36.133,43.458 32.773,55.214 			"/>
			<path fill="#9BCDDA" d="M32.273,58.783V39.935l4.359,3.27l-0.019,0.392L32.273,58.783z M33.273,41.935v9.71l2.285-7.996
				L33.273,41.935z"/>
		</g>
	</g>
</g>
</svg>
