<?xml version="1.0" encoding="utf-8"?>
<!-- Generator: Adobe Illustrator 16.0.3, SVG Export Plug-In . SVG Version: 6.00 Build 0)  -->
<!DOCTYPE svg PUBLIC "-//W3C//DTD SVG 1.1//EN" "http://www.w3.org/Graphics/SVG/1.1/DTD/svg11.dtd">
<svg version="1.1" id="Layer_1" xmlns="http://www.w3.org/2000/svg" xmlns:xlink="http://www.w3.org/1999/xlink" x="0px" y="0px"
	 width="500px" height="500px" viewBox="0 0 500 500" enable-background="new 0 0 500 500" xml:space="preserve">
<g>
	<path fill="#FAF7F1" d="M0,0v500h500V0H0z M449.98,318.882c-0.114,1.149-9.892-5.323-15.756-7.744
		c-9.399-3.871-38.006-6.729-47.042-8.771c-9.035-2.038-13.698-7.572-15.731-6.7c-2.046,0.88-10.769,3.884-17.782,5.249
		c-9.362,1.818-25.355,2.315-33.796,2.91c-8.167,0.575-13.445,8.836-14.57,6.415c-4.161-8.995,7.776-25.086,33.221-33.808
		c-7.576-8.677-35.381-18.638-38.169-19.225c-2.755-0.583-20.858,3.432-68.267,3.497c-0.047-0.078-0.096-0.155-0.155-0.249
		c-0.247-0.375-0.589-0.872-1-1.459c-0.827-1.174-1.934-2.694-2.951-4.259c-1.019-1.558-1.942-3.188-2.372-4.5
		c-0.1-0.324-0.184-0.636-0.216-0.909c-0.047-0.279-0.047-0.521-0.028-0.721c0.024-0.196,0.053-0.359,0.1-0.458
		c0.041-0.096,0.061-0.155,0.061-0.155s-0.033,0.051-0.096,0.143c-0.065,0.087-0.128,0.236-0.204,0.438
		c-0.059,0.204-0.12,0.467-0.139,0.762c-0.028,0.297-0.012,0.64,0.019,1.003c0.137,1.471,0.717,3.333,1.394,5.139
		c0.674,1.806,1.442,3.566,1.991,4.866c0.045,0.123,0.096,0.241,0.141,0.351c-0.08,0-0.163,0-0.243,0
		c1.561,4.288,9.387,30.438,5.786,29.729c-5.722-1.134-21.898-22.588-22.265-28.11c-0.088,0-0.2,0.004-0.322,0.013
		c-0.049-0.326-0.104-0.697-0.163-1.125c-0.195-1.419-0.438-3.354-0.841-5.274c-0.394-1.911-0.999-3.835-1.828-5.086
		c-0.406-0.636-0.872-1.064-1.223-1.298c-0.353-0.247-0.589-0.306-0.585-0.318c-0.008,0.012,0.212,0.126,0.491,0.422
		c0.285,0.302,0.615,0.778,0.856,1.431c0.497,1.288,0.664,3.154,0.64,5.018c-0.018,1.874-0.193,3.745-0.306,5.184
		c-0.033,0.444-0.067,0.84-0.087,1.19c-9.645,0.583-34.933,2.58-37.172,2.58c-0.342,1.487,0.913,6.716-1.123,6.732
		c-5.347,0.049-5.998-5.894-11.055-6.725c-9.35,0.008-27.207-0.807-44.148-4.658c-15.271-3.469-39.457-3.525-53.32-6.407
		c-8.928-1.854-14.801-13.063-10.01-15.602c-0.004,0.051-0.008,0.102-0.008,0.167c-0.025,0.186-0.004,0.394,0.039,0.627
		c0.087,0.467,0.33,1.052,0.809,1.553c0.471,0.507,1.115,0.958,1.879,1.359c0.762,0.406,1.648,0.724,2.625,1.019
		c0.98,0.283,2.052,0.497,3.202,0.701c2.298,0.358,4.915,0.585,7.758,0.629c1.422,0.021,2.9,0.024,4.432-0.02
		c1.526-0.047,3.106-0.135,4.724-0.239c3.238-0.204,6.642-0.575,10.139-1.051c3.493-0.518,7.085-1.103,10.721-1.836
		c3.611-0.705,7.312-1.465,10.976-2.274c3.67-0.801,7.326-1.657,10.915-2.545c3.588-0.886,7.108-1.799,10.501-2.723
		c3.397-0.921,6.667-1.832,9.761-2.729c3.097-0.893,6.018-1.749,8.718-2.496c1.353-0.371,2.651-0.709,3.886-0.993
		c0.617-0.139,1.227-0.25,1.807-0.351c0.288-0.03,0.571-0.059,0.85-0.087c0.25-0.039,0.577,0.004,0.848,0
		c1.082,0.063,2.099,0.346,2.947,0.78c0.848,0.426,1.561,0.972,2.146,1.522c1.168,1.115,1.916,2.166,2.429,2.871
		c0.503,0.722,0.772,1.107,0.772,1.107l0.22-0.151c0,0-0.255-0.392-0.734-1.131c-0.493-0.729-1.206-1.824-2.376-3.016
		c-0.583-0.593-1.306-1.194-2.203-1.691c-0.893-0.493-1.971-0.844-3.163-0.948c-0.297-0.008-0.552-0.063-0.895-0.033
		c-0.308,0.021-0.613,0.045-0.929,0.063c-0.609,0.082-1.237,0.183-1.875,0.295c-1.267,0.247-2.588,0.542-3.959,0.864
		c-2.739,0.65-5.689,1.402-8.812,2.187c-3.126,0.781-6.409,1.628-9.82,2.446c-3.405,0.831-6.931,1.652-10.529,2.437
		c-3.597,0.785-7.257,1.541-10.925,2.246c-3.674,0.689-7.334,1.345-10.986,1.899c-3.627,0.575-7.204,1.111-10.668,1.557
		c-3.458,0.475-6.806,0.884-9.981,1.23c-1.587,0.167-3.134,0.318-4.63,0.418c-1.498,0.128-2.941,0.204-4.331,0.271
		c-2.775,0.112-5.319,0.108-7.554-0.047c-2.229-0.175-4.157-0.495-5.63-1.029c-0.73-0.281-1.335-0.615-1.783-0.994
		c-0.455-0.379-0.691-0.809-0.83-1.186c-0.234-0.746-0.067-1.264-0.096-1.255l-0.134-0.017c0.947-9.154,29.114-18.159,36.636-21.791
		c7.921-3.823,33.712-15.029,41.301-19.418c5.814-3.36,37.969-11.222,48.951-12.822c11.06-1.61,70.118-7.353,100.233,4.663
		c7.553,3.014,56.533,25.483,60.911,27.816c4.369,2.329,1.683,2.661,2.078,7.634c0.106,1.422,5.935,10.486,11.306,20.888
		c6.688,12.953,13.12,28.551,15.708,28.864C436.995,281.932,450.592,312.679,449.98,318.882z"/>
	<path fill="#FAF7F1" d="M174.669,231.974c-1.006,0-1.875,0.358-2.437,1.017l-0.406,0.473l0.255,0.579
		c0.518,1.169,1.673,1.926,2.943,1.926c1.031,0,1.964-0.493,2.633-1.386l0.351-0.477l-0.255-0.538
		C177.243,232.469,175.794,231.974,174.669,231.974z"/>
</g>
</svg>
